<?xml version="1.0" encoding="utf-8"?>
<!-- Generator: Adobe Illustrator 22.1.0, SVG Export Plug-In . SVG Version: 6.00 Build 0)  -->
<svg version="1.1" id="Layer_1" xmlns="http://www.w3.org/2000/svg" xmlns:xlink="http://www.w3.org/1999/xlink" x="0px" y="0px"
	 viewBox="0 0 792 612" style="enable-background:new 0 0 792 612;" xml:space="preserve">
<style type="text/css">
	.st0{fill:#010101;}
</style>
<path class="st0" d="M661.6,268.1c75.2-75.1,97.5-174.7,49.9-222.4C663.9-1.8,564.3,20.5,489.1,95.7
	C424.5,160.2,399,242.8,423.2,295l-10.1,10.1L338,229.9c44.2-44.2,36.3-72.6,36.3-72.6L216.9,0L53.6,163.3l157.4,157.3
	c0,0,31.2,5.1,72.6-36.3l75.2,75.1l-16.1,16.1l-16.8-16.8L145.4,539.2l72.5,72.6l180.4-180.3l-16.8-16.8l16.2-16.1l31,31l-10.6,10.6
	l166.8,166.8l75.6-75.6L493.7,364.5l-10.5,10.6l-31-31l10.2-10.1C514.4,358.2,597,332.7,661.6,268.1z M696.4,151.7L539.1,309
	l-18.2-18.2l157.4-157.3L696.4,151.7z M660,115.3L502.7,272.7l-18.2-18.2L641.9,97.2L660,115.3z M605.6,60.9L623.7,79L466.4,236.4
	l-18.2-18.2L605.6,60.9z"/>
</svg>
