<?xml version="1.0" encoding="utf-8"?>
<!-- Generator: Adobe Illustrator 22.1.0, SVG Export Plug-In . SVG Version: 6.00 Build 0)  -->
<svg version="1.1" id="Layer_1" xmlns="http://www.w3.org/2000/svg" xmlns:xlink="http://www.w3.org/1999/xlink" x="0px" y="0px"
	 viewBox="0 0 792 612" style="enable-background:new 0 0 792 612;" xml:space="preserve">
<g>
	<path d="M334.1,608.9c-4.8,0-9.6-0.7-14.3-2.2c-12.1-3.8-21.9-12.1-27.7-23.3L164.5,339.8c-24.2-9.2-43.2-26.2-55.2-49.1
		c-27.2-52.3-6.8-117,45.5-144.2l249-129.6c25.2-13.1,54.2-15.6,81.5-7c27.3,8.6,49.6,27.2,62.7,52.5l0,0
		c12.1,23.2,15.1,49.7,8.8,75.1L683,379.9c12,23.1,3,51.8-20.1,63.8l-307,159.8C349,607.1,341.6,608.9,334.1,608.9z M452.9,23
		c-14,0-27.9,3.4-40.7,10l-249,129.6c-43.4,22.6-60.3,76.3-37.7,119.7c10.5,20.1,26.8,34.1,48.4,41.6l3.4,1.2L308.1,575
		c3.6,6.9,9.7,12,17.1,14.4c7.4,2.3,15.3,1.7,22.3-1.9l307-159.8c14.3-7.4,19.8-25.1,12.4-39.4L537.4,139.5l1-3.5
		c6.3-22,4-45.2-6.5-65.3l0,0c-10.9-20.9-29.4-36.4-52.1-43.6C471,24.4,461.9,23,452.9,23z"/>
</g>
<circle cx="286.2" cy="261.2" r="20.2"/>
<circle cx="429.1" cy="186.8" r="20.2"/>
<path d="M346,307.6c-11.4,5.9-13.5,21.4-4.1,30.2c22.4,20.8,56.3,26.4,85,11.5c28.7-14.9,43.5-45.9,39.3-76.2
	c-1.8-12.7-15.6-19.9-27-13.9L346,307.6z"/>
</svg>
