<?xml version="1.0" encoding="utf-8"?>
<!-- Generator: Adobe Illustrator 22.1.0, SVG Export Plug-In . SVG Version: 6.00 Build 0)  -->
<svg version="1.1" id="Layer_1" xmlns="http://www.w3.org/2000/svg" xmlns:xlink="http://www.w3.org/1999/xlink" x="0px" y="0px"
	 viewBox="0 0 792 612" style="enable-background:new 0 0 792 612;" xml:space="preserve">
<style type="text/css">
	.st0{fill:#010101;}
</style>
<path class="st0" d="M386.9,70.1c-1.2,0-2.4,0-3.6,0C372.4,33.7,338.7,7,298.6,7c-40,0-73.8,26.7-84.6,63.1c-1.2,0-2.4,0-3.6,0
	c-48.7,0-88.2,39.5-88.2,88.2c0,30.2,15.1,56.8,38.2,72.7l12.2,195.2h252.1L436.9,231c23.1-15.9,38.2-42.5,38.2-72.7
	C475.1,109.6,435.6,70.1,386.9,70.1z M249.3,400.9h-37.8v-147h37.8V400.9z M326.2,400.9h-37.8v-147h37.8V400.9z M393.2,400.9h-37.8
	v-147h37.8V400.9z"/>
<path class="st0" d="M671,512.7c-3.7-46.6-50.9-80.9-105.4-76.5c-46.2,3.7-82.8,34.1-90.6,71.6l-238.2,19l3.3,40.9l238.2-19
	c13.6,35.9,54.6,60,100.8,56.3C633.5,600.6,674.7,559.3,671,512.7z"/>
</svg>
