<?xml version="1.0" encoding="utf-8"?>
<!-- Generator: Adobe Illustrator 19.1.0, SVG Export Plug-In . SVG Version: 6.00 Build 0)  -->
<svg version="1.1" id="Layer_1" xmlns="http://www.w3.org/2000/svg" xmlns:xlink="http://www.w3.org/1999/xlink" x="0px" y="0px"
	 viewBox="-345 244 100 125" style="enable-background:new -345 244 100 125;" xml:space="preserve">
<path d="M-271.5,269.1c-6.2,5-12.6,12.1-10.2,20.2c-7.5-6.1-7.6-26.6-3.2-39.7c-25.1,9.3-25.5,28.9-24.5,36
	c-2.3-6.8-5.5-9.9-13.8-12.1c3.9,13.5-12.1,26.1-9.1,42.4c2.5,13.3,10.7,20.4,19.9,23.6c-6-14.4,9.2-19.5,9.9-30
	c1.4,1.4,4,4.3,2.2,10c3.7-2.3,9.4-12.4,6.7-19c8.8,4,21.2,23,16,37c8.5-3.7,15.4-9.6,18.3-17.4
	C-249.7,293.7-275.1,289.9-271.5,269.1z"/>
</svg>
